<?xml version="1.0" encoding="UTF-8" standalone="no"?>
<svg width="608px" height="70px" viewBox="0 0 608 70" version="1.1" xmlns="http://www.w3.org/2000/svg" xmlns:xlink="http://www.w3.org/1999/xlink" xmlns:sketch="http://www.bohemiancoding.com/sketch/ns">
    <!-- Generator: Sketch 3.2 (9961) - http://www.bohemiancoding.com/sketch -->
    <title>Imported Layers</title>
    <desc>Created with Sketch.</desc>
    <defs></defs>
    <g id="Page-6" stroke="none" stroke-width="1" fill="none" fill-rule="evenodd" sketch:type="MSPage">
        <g id="Start-5" sketch:type="MSArtboardGroup" transform="translate(-59.000000, -140.000000)">
            <g id="Imported-Layers" sketch:type="MSLayerGroup" transform="translate(59.000000, 140.000000)">
                <path d="M61.518,47.773 L36.265,69.081 L11.012,47.773 L61.518,47.773" id="Fill-1" fill="#059ACE" sketch:type="MSShapeGroup"></path>
                <path d="M27.875,25.831 L44.656,25.831 L44.656,42.61 L27.875,42.61 L27.875,25.831 Z" id="Fill-2" fill="#C90884" sketch:type="MSShapeGroup"></path>
                <path d="M1.531,0.836 L68.819,0.836 L68.819,9.226 L1.531,9.226 L1.531,0.836 Z" id="Fill-3" fill="#CE112C" sketch:type="MSShapeGroup"></path>
                <path d="M6.455,34.221 L0.582,24.049 L6.455,13.876 L18.201,13.876 L24.074,24.049 L18.201,34.221 L6.455,34.221" id="Fill-4" fill="#00693C" sketch:type="MSShapeGroup"></path>
                <path d="M69.284,24.049 C69.284,29.666 64.729,34.221 59.112,34.221 C53.494,34.221 48.94,29.666 48.94,24.049 C48.94,18.432 53.494,13.876 59.112,13.876 C64.729,13.876 69.284,18.432 69.284,24.049" id="Fill-5" fill="#FDC800" sketch:type="MSShapeGroup"></path>
                <path d="M90.955,13.552 C93.963,13.04 98.189,12.656 104.143,12.656 C110.16,12.656 114.45,13.809 117.33,16.114 C120.148,18.29 121.94,21.875 121.94,26.101 C121.94,30.325 120.595,33.975 117.97,36.344 C114.642,39.417 109.712,40.89 103.95,40.89 C102.67,40.89 101.518,40.826 100.621,40.633 L100.621,56.125 L90.955,56.125 L90.955,13.552 L90.955,13.552 Z M100.621,33.143 C101.454,33.335 102.414,33.398 103.886,33.398 C109.072,33.398 112.273,30.774 112.273,26.421 C112.273,22.451 109.52,20.082 104.591,20.082 C102.67,20.082 101.325,20.211 100.621,20.402 L100.621,33.143 L100.621,33.143 Z" id="Fill-6" fill="#1D1D1B" sketch:type="MSShapeGroup"></path>
                <path d="M152.5,37.882 L136.623,37.882 L136.623,48.124 L154.356,48.124 L154.356,56.125 L126.891,56.125 L126.891,12.977 L153.46,12.977 L153.46,20.979 L136.623,20.979 L136.623,29.941 L152.5,29.941 L152.5,37.882" id="Fill-7" fill="#1D1D1B" sketch:type="MSShapeGroup"></path>
                <path d="M160.693,13.618 C164.278,13.04 168.951,12.656 173.816,12.656 C182.075,12.656 187.453,14.192 191.55,17.266 C196.032,20.595 198.848,25.909 198.848,33.526 C198.848,41.786 195.839,47.485 191.742,51.004 C187.198,54.783 180.219,56.574 171.768,56.574 C166.71,56.574 163.061,56.254 160.693,55.934 L160.693,13.618 L160.693,13.618 Z M170.423,48.764 C171.256,48.956 172.665,48.956 173.816,48.956 C182.715,49.019 188.542,44.155 188.542,33.848 C188.542,24.883 183.292,20.147 174.841,20.147 C172.728,20.147 171.256,20.338 170.423,20.531 L170.423,48.764 L170.423,48.764 Z" id="Fill-8" fill="#1D1D1B" sketch:type="MSShapeGroup"></path>
                <path d="M211.956,45.051 L208.882,56.125 L198.832,56.125 L211.956,12.977 L224.76,12.977 L238.204,56.125 L227.64,56.125 L224.312,45.051 L211.956,45.051 L211.956,45.051 Z M222.903,37.753 L220.215,28.598 C219.446,26.037 218.677,22.835 218.038,20.274 L217.91,20.274 C217.269,22.835 216.629,26.101 215.925,28.598 L213.365,37.753 L222.903,37.753 L222.903,37.753 Z" id="Fill-9" fill="#1D1D1B" sketch:type="MSShapeGroup"></path>
                <path d="M277.022,54.125 C274.014,55.149 268.316,56.559 262.619,56.559 C254.743,56.559 249.046,54.574 245.077,50.796 C241.171,47.02 238.994,41.385 238.994,35.047 C239.058,20.707 249.494,12.512 263.643,12.512 C269.212,12.512 273.502,13.602 275.614,14.56 L273.566,22.435 C271.197,21.347 268.316,20.579 263.579,20.579 C255.448,20.579 249.238,25.124 249.238,34.537 C249.238,43.498 254.872,48.684 262.874,48.684 C265.051,48.684 266.843,48.43 267.612,48.108 L267.612,39.018 L260.954,39.018 L260.954,31.398 L277.022,31.398 L277.022,54.125" id="Fill-10" fill="#1D1D1B" sketch:type="MSShapeGroup"></path>
                <path d="M322.71,34.104 C322.71,48.316 314.195,56.831 301.521,56.831 C288.78,56.831 281.226,47.163 281.226,34.808 C281.226,21.875 289.549,12.208 302.225,12.208 C315.476,12.208 322.71,22.131 322.71,34.104 L322.71,34.104 Z M291.534,34.616 C291.534,43.131 295.503,49.084 302.033,49.084 C308.627,49.084 312.404,42.81 312.404,34.422 C312.404,26.613 308.756,19.954 302.033,19.954 C295.375,19.954 291.534,26.228 291.534,34.616 L291.534,34.616 Z" id="Fill-11" fill="#1D1D1B" sketch:type="MSShapeGroup"></path>
                <path d="M364.943,54.141 C361.932,55.165 356.235,56.574 350.537,56.574 C342.664,56.574 336.965,54.59 332.996,50.811 C329.089,47.036 326.912,41.4 326.912,35.063 C326.979,20.723 337.414,12.528 351.561,12.528 C357.132,12.528 361.421,13.618 363.534,14.576 L361.485,22.451 C359.115,21.363 356.235,20.595 351.497,20.595 C343.367,20.595 337.157,25.14 337.157,34.552 C337.157,43.514 342.789,48.699 350.794,48.699 C352.971,48.699 354.762,48.445 355.533,48.124 L355.533,39.033 L348.874,39.033 L348.874,31.414 L364.943,31.414 L364.943,54.141" id="Fill-12" fill="#1D1D1B" sketch:type="MSShapeGroup"></path>
                <path d="M425.458,39.609 C425.268,34.422 425.072,28.149 425.072,21.875 L424.947,21.875 C423.538,27.381 421.746,33.526 420.08,38.585 L414.83,55.422 L407.214,55.422 L402.604,38.776 C401.194,33.655 399.787,27.508 398.699,21.875 L398.57,21.875 C398.378,27.702 398.121,34.359 397.864,39.737 L397.033,56.125 L388.007,56.125 L390.76,12.977 L403.756,12.977 L407.981,27.381 C409.388,32.373 410.67,37.753 411.629,42.81 L411.887,42.81 C413.038,37.815 414.513,32.118 415.983,27.316 L420.529,12.977 L433.334,12.977 L435.636,56.125 L426.164,56.125 L425.458,39.609" id="Fill-13" fill="#1D1D1B" sketch:type="MSShapeGroup"></path>
                <path d="M452.664,45.051 L449.591,56.125 L439.54,56.125 L452.664,12.977 L465.468,12.977 L478.912,56.125 L468.349,56.125 L465.021,45.051 L452.664,45.051 L452.664,45.051 Z M463.611,37.753 L460.922,28.598 C460.154,26.037 459.387,22.835 458.747,20.274 L458.619,20.274 C457.977,22.835 457.338,26.101 456.635,28.598 L454.073,37.753 L463.611,37.753 L463.611,37.753 Z" id="Fill-14" fill="#1D1D1B" sketch:type="MSShapeGroup"></path>
                <path d="M483.353,12.977 L493.083,12.977 L493.083,47.931 L510.241,47.931 L510.241,56.125 L483.353,56.125 L483.353,12.977" id="Fill-15" fill="#1D1D1B" sketch:type="MSShapeGroup"></path>
                <path d="M552.172,39.609 C551.979,34.422 551.787,28.149 551.787,21.875 L551.661,21.875 C550.252,27.381 548.457,33.526 546.794,38.585 L541.545,55.422 L533.926,55.422 L529.317,38.776 C527.908,33.655 526.499,27.508 525.41,21.875 L525.282,21.875 C525.09,27.702 524.835,34.359 524.579,39.737 L523.747,56.125 L514.719,56.125 L517.474,12.977 L530.467,12.977 L534.693,27.381 C536.102,32.373 537.383,37.753 538.343,42.81 L538.6,42.81 C539.75,37.815 541.224,32.118 542.696,27.316 L547.243,12.977 L560.045,12.977 L562.351,56.125 L552.876,56.125 L552.172,39.609" id="Fill-16" fill="#1D1D1B" sketch:type="MSShapeGroup"></path>
                <path d="M608.019,34.104 C608.019,48.316 599.505,56.831 586.829,56.831 C574.089,56.831 566.534,47.163 566.534,34.808 C566.534,21.875 574.856,12.208 587.532,12.208 C600.783,12.208 608.019,22.131 608.019,34.104 L608.019,34.104 Z M576.266,6.127 C576.266,3.629 578.185,1.709 580.683,1.709 C583.05,1.709 584.906,3.565 584.906,6.127 C584.906,8.494 583.113,10.479 580.619,10.479 C578.185,10.479 576.266,8.494 576.266,6.127 L576.266,6.127 Z M576.84,34.616 C576.84,43.131 580.81,49.084 587.34,49.084 C593.934,49.084 597.711,42.81 597.711,34.422 C597.711,26.613 594.062,19.954 587.34,19.954 C580.683,19.954 576.84,26.228 576.84,34.616 L576.84,34.616 Z M589.58,6.127 C589.58,3.629 591.437,1.709 593.934,1.709 C596.365,1.709 598.224,3.565 598.224,6.127 C598.224,8.494 596.43,10.479 593.87,10.479 C591.373,10.479 589.58,8.494 589.58,6.127 L589.58,6.127 Z" id="Fill-17" fill="#1D1D1B" sketch:type="MSShapeGroup"></path>
            </g>
        </g>
    </g>
</svg>